<svg width="24" height="24" viewBox="0 0 24 24" fill="none" xmlns="http://www.w3.org/2000/svg">
<rect x="0.75" y="0.75" width="22.5" height="22.5" rx="11.25" stroke="#222326" stroke-width="1.5"/>
<path d="M3.30078 16.1185H6.24554L6.84652 14.4934L5.49433 11.7246L3.30078 16.1185Z" fill="black"/>
<path d="M11.1126 13.9218L7.83732 7.33105L6.8457 9.58817L9.94072 16.1188H12.1702L11.1126 13.9218Z" fill="black"/>
<path fill-rule="evenodd" clip-rule="evenodd" d="M16.5844 16.1395C19.0224 16.1395 20.9989 14.1631 20.9989 11.725C20.9989 9.28698 19.0224 7.31055 16.5844 7.31055C14.1464 7.31055 12.1699 9.28698 12.1699 11.725C12.1699 14.1631 14.1464 16.1395 16.5844 16.1395ZM16.5844 14.4067C18.0655 14.4067 19.2661 13.2061 19.2661 11.725C19.2661 10.244 18.0655 9.04334 16.5844 9.04334C15.1033 9.04334 13.9027 10.244 13.9027 11.725C13.9027 13.2061 15.1033 14.4067 16.5844 14.4067Z" fill="black"/>
</svg>
